<svg width="640" height="640" viewBox="0 0 640 640" fill="none" xmlns="http://www.w3.org/2000/svg">
<rect width="640" height="640" rx="240" fill="#0064FF"/>
<path d="M200.022 211.334C198.755 226.025 197.927 239.709 197.488 252.45C211.533 246.045 223.28 237.437 232.46 227.565L263.18 256.132C246.128 274.469 223.84 288.78 197.639 297.349C200.107 349.616 210.873 380.124 223.945 396.842C238.917 415.988 260.159 420.267 286.981 413.797C286.942 413.655 286.902 413.512 286.863 413.37C280.782 390.842 287.076 362.216 298.568 342.079C304.463 331.751 313.055 321.243 324.807 315.096C337.695 308.357 352.871 307.773 367.406 315.696C381.667 323.469 389.93 336.469 392.018 351.163C393.997 365.091 390.353 379.314 383.889 391.828C376.273 406.569 363.902 420.686 347.702 432.099C364.988 445.314 389.996 450.04 413.895 440.912C448.072 427.858 487.202 380.732 471.754 265.175L513.334 259.616C530.04 384.578 489.112 457.089 428.863 480.102C385.793 496.552 336.073 484.685 307.285 451.707C268.888 463.433 222.797 463.475 190.899 422.683C171.42 397.773 159.362 359.767 156.069 305.636C139.511 307.009 121.945 306.339 103.597 303.328L110.391 261.932C126.479 264.572 141.469 264.986 155.236 263.602C155.519 246.308 156.504 227.706 158.226 207.73L200.022 211.334ZM347.327 352.529C345.523 351.545 345.18 351.782 344.248 352.27C342.182 353.351 338.652 356.477 335.003 362.873C329.023 373.349 326.207 386.222 326.473 395.654C335.932 388.395 342.694 380.171 346.619 372.573C350.325 365.4 350.906 360.032 350.485 357.065C350.172 354.864 349.407 353.663 347.327 352.529Z" fill="white"/>
</svg>
